<svg width="592" height="338" fill="none" xmlns="http://www.w3.org/2000/svg"><path d="M395.773 333v-18.36h29.92v-57.97l-19.89 15.47-9.52-13.09 35.87-34.17h13.94v89.76h29.92V333h-80.24Z" fill="#0582CA"/><path fill-rule="evenodd" clip-rule="evenodd" d="M431.353 222.88h16.74v89.76h29.92V335h-84.24v-22.36h29.92v-51.881l-18.292 14.228-11.766-16.177 37.718-35.93Zm1.6 4-34.022 32.41 7.275 10.003 21.487-16.712v64.059h-29.92V331h76.24v-14.36h-29.92v-89.76h-11.14Z" fill="#0582CA"/><path d="M336.94 335.04c-13.487 0-23.857-4.703-31.11-14.11-7.14-9.52-10.71-23.347-10.71-41.48 0-18.133 3.57-31.903 10.71-41.31 7.253-9.52 17.623-14.28 31.11-14.28 13.487 0 23.8 4.76 30.94 14.28 7.253 9.407 10.88 23.177 10.88 41.31 0 18.133-3.627 31.96-10.88 41.48-7.14 9.407-17.453 14.11-30.94 14.11Zm-20.74-45.22 36.72-38.08c-3.513-6.12-8.84-9.18-15.98-9.18-14.167 0-21.25 12.297-21.25 36.89 0 3.627.17 7.083.51 10.37Zm20.74 26.52c14.167 0 21.25-12.297 21.25-36.89 0-3.74-.17-7.197-.51-10.37l-36.72 38.08c3.627 6.12 8.953 9.18 15.98 9.18Z" fill="#0582CA"/><path fill-rule="evenodd" clip-rule="evenodd" d="M336.94 225.86c-12.953 0-22.695 4.536-29.519 13.491-6.767 8.917-10.301 22.183-10.301 40.099 0 17.908 3.531 31.235 10.302 40.27 6.82 8.837 16.561 13.32 29.518 13.32 12.962 0 22.642-4.486 29.347-13.319l.002-.003c6.882-9.033 10.471-22.359 10.471-40.268 0-17.912-3.59-31.174-10.464-40.089l-.008-.01-.008-.011c-6.708-8.944-16.387-13.48-29.34-13.48Zm-32.701 11.068c7.683-10.084 18.68-15.068 32.701-15.068 14.015 0 24.96 4.981 32.532 15.069 7.627 9.898 11.288 24.173 11.288 42.521 0 18.357-3.665 32.685-11.289 42.692-7.576 9.978-18.522 14.898-32.531 14.898-14.011 0-25.007-4.92-32.694-14.889l-.008-.01-.008-.011c-7.504-10.005-11.11-24.328-11.11-42.68 0-18.35 3.605-32.623 11.117-42.519l.002-.003Zm15.03 13.856c3.898-6.767 9.871-10.224 17.671-10.224 7.846 0 13.839 3.434 17.714 10.184l.748 1.303-40.749 42.258-.443-4.279a103.08 103.08 0 0 1-.52-10.576c0-12.423 1.777-22.066 5.579-28.666Zm3.466 1.997c-3.281 5.696-5.045 14.499-5.045 26.669 0 1.982.052 3.91.155 5.783l32.555-33.761c-3.123-4.639-7.541-6.912-13.46-6.912-6.367 0-11.019 2.691-14.205 8.221Zm36.477 11.828.456 4.258c.349 3.255.522 6.783.522 10.583 0 12.423-1.778 22.066-5.58 28.666-3.898 6.766-9.87 10.224-17.67 10.224-7.744 0-13.719-3.442-17.701-10.16l-.777-1.311 40.75-42.26Zm-35.718 42.804c3.219 4.661 7.642 6.927 13.446 6.927 6.366 0 11.019-2.691 14.204-8.221 3.282-5.696 5.046-14.499 5.046-26.669 0-2.018-.05-3.947-.15-5.788l-32.546 33.751Z" fill="#0582CA"/><path d="M201.097 333V222.5h40.12c11.673 0 20.57 2.833 26.69 8.5 6.233 5.667 9.35 13.883 9.35 24.65 0 16.433-6.97 26.803-20.91 31.11l26.86 46.24h-23.8l-25.16-44.2h-12.58V333h-20.57Zm20.57-62.9h17.85c6.006 0 10.313-1.133 12.92-3.4 2.72-2.267 4.08-5.95 4.08-11.05 0-5.1-1.36-8.783-4.08-11.05-2.607-2.267-6.914-3.4-12.92-3.4h-17.85v28.9Z" fill="#000"/><path fill-rule="evenodd" clip-rule="evenodd" d="M199.097 220.5h42.12c11.971 0 21.428 2.906 28.043 9.027 6.754 6.145 9.997 14.964 9.997 26.123 0 8.491-1.801 15.614-5.568 21.218-3.365 5.006-8.201 8.655-14.39 10.994L286.681 335h-28.437l-25.16-44.2h-9.417V335h-24.57V220.5Zm4 4V331h16.57v-44.2h15.742l25.16 44.2h19.163l-26.377-45.409 2.401-.742c6.61-2.042 11.425-5.468 14.613-10.212 3.203-4.766 4.888-11.044 4.888-18.987 0-10.37-2.989-17.982-8.696-23.17l-.007-.006-.006-.007c-5.625-5.208-13.96-7.967-25.331-7.967h-38.12Zm16.57 14.7h19.85c6.154 0 11.058 1.141 14.216 3.877 3.338 2.792 4.784 7.158 4.784 12.573s-1.446 9.782-4.784 12.573c-3.158 2.736-8.062 3.877-14.216 3.877h-19.85v-32.9Zm4 4v24.9h15.85c5.848 0 9.551-1.121 11.607-2.909l.016-.014.016-.013c2.091-1.743 3.361-4.737 3.361-9.514 0-4.777-1.27-7.771-3.361-9.514l-.016-.013-.016-.014c-2.056-1.788-5.759-2.909-11.607-2.909h-15.85Z" fill="#000"/><path d="M106.053 333V222.5h72.59v18.7h-52.19v26.18h44.03v18.7h-44.03v28.22h52.19V333h-72.59Z" fill="#000"/><path fill-rule="evenodd" clip-rule="evenodd" d="M104.053 220.5h76.59v22.7h-52.19v22.18h44.03v22.7h-44.03v24.22h52.19V335h-76.59V220.5Zm4 4V331h68.59v-14.7h-52.19v-32.22h44.03v-14.7h-44.03V239.2h52.19v-14.7h-68.59Z" fill="#000"/><path d="M2 333v-13.43l50.49-78.37H4.55v-18.7h75.14v13.43L29.2 314.3h50.49V333H2Z" fill="#000"/><path fill-rule="evenodd" clip-rule="evenodd" d="M2.55 220.5h79.14v16.018L32.868 312.3H81.69V335H0v-16.019L48.822 243.2H2.55v-22.7Zm4 4v14.7h49.608L4 320.158V331h73.69v-14.7H25.532l52.158-80.959V224.5H6.55Z" fill="#000"/><path fill-rule="evenodd" clip-rule="evenodd" d="M228.69 43.81C254.915 17.564 294.149-2.373 350.492.227c56.576 2.611 92.253 27.197 112.347 57.802 15.079 22.966 20.997 48.734 21.091 69.675 19.59 1.455 42.855 6.238 62.766 17.224 13.122 7.239 25.263 17.445 33.582 31.613 8.398 14.301 12.313 31.645 10.46 52.028-3.562 39.187-20.36 65.588-41.31 82.079C528.936 326.779 508.14 334.601 491 335v-24.351c11.527-.268 28.259-8.546 43-20.149 14.283-11.243 26.162-34.787 29-66 1.347-14.817-3.693-24.426-8.591-32.767-4.976-8.474-12.61-15.243-22.205-20.537-19.578-10.802-45.267-14.295-64.158-13.986l-18.159.298 3.139-17.888c2.707-15.431-.132-42.077-15.265-65.125-14.572-22.195-41.229-42.11-88.653-44.299-47.657-2.2-78.757 14.363-99.198 34.82-20.894 20.908-31.367 46.674-35.59 62.961L228 163.5l-39.005-28.883c-1.862-1.934-8.535-6.136-19.779-10.322-10.58-3.94-23.106-7.084-34.774-8.144-13.791-1.254-38.92 1.736-60.343 15.066-20.472 12.738-38.416 35.348-39.303 76.109l-29.992-.652c1.113-51.239 24.669-83.023 53.447-100.929 27.826-17.314 59.698-21.217 78.907-19.471 14.732 1.34 29.873 5.195 42.526 9.906 4.022 1.498 8.06 3.18 11.907 5.019 7.015-17.776 18.671-38.949 37.099-57.39Z" fill="#0582CA"/></svg>