<svg width="70" height="40" viewBox="0 0 70 40" fill="none" xmlns="http://www.w3.org/2000/svg">
<path d="M46.8616 39.4289V37.255H50.4043V30.391L48.0492 32.2228L46.922 30.6729L51.1692 26.6269H52.8198V37.255H56.3625V39.4289H46.8616Z" fill="#0582CA"/>
<path fill-rule="evenodd" clip-rule="evenodd" d="M51.0745 26.3901H53.0566V37.0182H56.5993V39.6657H46.6248V37.0182H50.1675V30.8752L48.0016 32.5599L46.6085 30.6444L51.0745 26.3901ZM51.2639 26.8638L47.2355 30.7013L48.0969 31.8857L50.6411 29.9069V37.4918H47.0984V39.1921H56.1256V37.4918H52.583V26.8638H51.2639Z" fill="#0582CA"/>
<path d="M39.8954 39.6705C38.2985 39.6705 37.0707 39.1136 36.2118 37.9998C35.3664 36.8726 34.9437 35.2354 34.9437 33.0884C34.9437 30.9413 35.3664 29.3108 36.2118 28.197C37.0707 27.0698 38.2985 26.5062 39.8954 26.5062C41.4923 26.5062 42.7135 27.0698 43.5589 28.197C44.4177 29.3108 44.8471 30.9413 44.8471 33.0884C44.8471 35.2354 44.4177 36.8726 43.5589 37.9998C42.7135 39.1136 41.4923 39.6705 39.8954 39.6705ZM37.4397 34.3162L41.7875 29.8074C41.3715 29.0827 40.7408 28.7204 39.8954 28.7204C38.218 28.7204 37.3793 30.1764 37.3793 33.0884C37.3793 33.5178 37.3994 33.9271 37.4397 34.3162ZM39.8954 37.4563C41.5728 37.4563 42.4115 36.0003 42.4115 33.0884C42.4115 32.6455 42.3914 32.2362 42.3511 31.8605L38.0033 36.3694C38.4327 37.094 39.0634 37.4563 39.8954 37.4563Z" fill="#0582CA"/>
<path fill-rule="evenodd" clip-rule="evenodd" d="M39.8954 26.743C38.3618 26.743 37.2082 27.2801 36.4003 28.3405C35.599 29.3962 35.1805 30.967 35.1805 33.0884C35.1805 35.2088 35.5987 36.7868 36.4004 37.8565C37.2078 38.9029 38.3613 39.4337 39.8954 39.4337C41.4302 39.4337 42.5764 38.9025 43.3703 37.8566L43.3705 37.8563C44.1854 36.7867 44.6103 35.2089 44.6103 33.0884C44.6103 30.9675 44.1853 29.3972 43.3713 28.3416L43.3704 28.3404L43.3694 28.3391C42.5752 27.2801 41.4291 26.743 39.8954 26.743ZM36.0235 28.0535C36.9332 26.8595 38.2353 26.2694 39.8954 26.2694C41.5549 26.2694 42.8509 26.8592 43.7474 28.0537C44.6504 29.2257 45.0839 30.9158 45.0839 33.0884C45.0839 35.262 44.65 36.9585 43.7472 38.1433C42.8503 39.3248 41.5542 39.9073 39.8954 39.9073C38.2364 39.9073 36.9345 39.3248 36.0243 38.1444L36.0233 38.1432L36.0224 38.1419C35.1339 36.9572 34.7069 35.2613 34.7069 33.0884C34.7069 30.9157 35.1338 29.2257 36.0232 28.0539L36.0235 28.0535ZM37.8031 29.6942C38.2647 28.893 38.9719 28.4836 39.8954 28.4836C40.8244 28.4836 41.5341 28.8902 41.9929 29.6895L42.0815 29.8437L37.2566 34.8473L37.2041 34.3406C37.163 33.9426 37.1425 33.5251 37.1425 33.0884C37.1425 31.6174 37.353 30.4757 37.8031 29.6942ZM38.2135 29.9306C37.825 30.6051 37.6161 31.6473 37.6161 33.0884C37.6161 33.3231 37.6222 33.5513 37.6344 33.7731L41.4892 29.7756C41.1194 29.2264 40.5963 28.9572 39.8954 28.9572C39.1416 28.9572 38.5907 29.2758 38.2135 29.9306ZM42.5326 31.3312L42.5866 31.8353C42.6279 32.2207 42.6483 32.6385 42.6483 33.0884C42.6483 34.5593 42.4379 35.701 41.9877 36.4825C41.5262 37.2838 40.819 37.6931 39.8954 37.6931C38.9785 37.6931 38.271 37.2856 37.7996 36.4901L37.7076 36.3349L42.5326 31.3312ZM38.3034 36.3993C38.6845 36.9512 39.2082 37.2195 39.8954 37.2195C40.6493 37.2195 41.2001 36.9009 41.5773 36.2461C41.9658 35.5716 42.1747 34.5294 42.1747 33.0884C42.1747 32.8494 42.1688 32.621 42.1569 32.4031L38.3034 36.3993Z" fill="#0582CA"/>
<path d="M23.8108 39.4289V26.3451H28.5613C29.9434 26.3451 30.9969 26.6806 31.7215 27.3516C32.4596 28.0226 32.8286 28.9955 32.8286 30.2703C32.8286 32.2161 32.0033 33.4439 30.3527 33.9539L33.5331 39.4289H30.7151L27.736 34.1954H26.2464V39.4289H23.8108ZM26.2464 31.9812H28.36C29.0712 31.9812 29.5811 31.847 29.8898 31.5787C30.2118 31.3103 30.3729 30.8741 30.3729 30.2703C30.3729 29.6664 30.2118 29.2303 29.8898 28.9619C29.5811 28.6935 29.0712 28.5593 28.36 28.5593H26.2464V31.9812Z" fill="black"/>
<path fill-rule="evenodd" clip-rule="evenodd" d="M23.574 26.1083H28.5613C29.9788 26.1083 31.0985 26.4524 31.8817 27.1772C32.6814 27.9048 33.0654 28.949 33.0654 30.2703C33.0654 31.2756 32.8522 32.119 32.4062 32.7826C32.0078 33.3754 31.4351 33.8074 30.7024 34.0843L33.9445 39.6657H30.5774L27.5983 34.4322H26.4832V39.6657H23.574V26.1083ZM24.0477 26.582V39.1921H26.0096V33.9586H27.8737L30.8527 39.1921H33.1217L29.9985 33.8155L30.2828 33.7276C31.0655 33.4858 31.6356 33.0801 32.0131 32.5184C32.3924 31.9541 32.5918 31.2107 32.5918 30.2703C32.5918 29.0424 32.238 28.1411 31.5622 27.5268L31.5614 27.5261L31.5606 27.5254C30.8946 26.9087 29.9077 26.582 28.5613 26.582H24.0477ZM26.0096 28.3225H28.36C29.0887 28.3225 29.6694 28.4577 30.0433 28.7816C30.4385 29.1121 30.6097 29.6292 30.6097 30.2703C30.6097 30.9114 30.4385 31.4285 30.0432 31.759C29.6693 32.0829 29.0887 32.218 28.36 32.218H26.0096V28.3225ZM26.4832 28.7961V31.7444H28.36C29.0525 31.7444 29.4909 31.6117 29.7344 31.4L29.7363 31.3983L29.7382 31.3967C29.9857 31.1904 30.136 30.8359 30.136 30.2703C30.136 29.7047 29.9857 29.3501 29.7382 29.1438L29.7363 29.1422L29.7344 29.1406C29.4909 28.9289 29.0525 28.7961 28.36 28.7961H26.4832Z" fill="black"/>
<path d="M12.5572 39.4289V26.3451H21.1522V28.5593H14.9727V31.6592H20.186V33.8733H14.9727V37.2147H21.1522V39.4289H12.5572Z" fill="black"/>
<path fill-rule="evenodd" clip-rule="evenodd" d="M12.3204 26.1083H21.389V28.7961H15.2095V31.4224H20.4228V34.1102H15.2095V36.9779H21.389V39.6657H12.3204V26.1083ZM12.794 26.582V39.1921H20.9154V37.4516H14.7358V33.6365H19.9492V31.896H14.7358V28.3225H20.9154V26.582H12.794Z" fill="black"/>
<path d="M0.23681 39.4289V37.8387L6.21509 28.5593H0.538744V26.3451H9.43571V27.9353L3.45743 37.2147H9.43571V39.4289H0.23681Z" fill="black"/>
<path fill-rule="evenodd" clip-rule="evenodd" d="M0.301933 26.1083H9.67252V28.005L3.8917 36.9779H9.67252V39.6657H0V37.7691L5.78082 28.7961H0.301933V26.1083ZM0.775554 26.582V28.3225H6.64936L0.473621 37.9084V39.1921H9.1989V37.4516H3.02317L9.1989 27.8657V26.582H0.775554Z" fill="black"/>
<path fill-rule="evenodd" clip-rule="evenodd" d="M27.0781 5.18727C30.1833 2.07981 34.8288 -0.280879 41.5 0.0270258C48.199 0.336209 52.4233 3.24724 54.8025 6.87102C56.588 9.59034 57.2887 12.6414 57.2999 15.1209C59.6194 15.2933 62.3741 15.8596 64.7317 17.1603C66.2854 18.0175 67.7229 19.2259 68.708 20.9035C69.7023 22.5968 70.1659 24.6504 69.9465 27.0639C69.5247 31.7038 67.5357 34.8299 65.0551 36.7824C62.6288 38.6923 60.1664 39.6185 58.137 39.6657V36.7824C59.5018 36.7507 61.4829 35.7706 63.2284 34.3967C64.9196 33.0655 66.3262 30.2778 66.6621 26.582C66.8216 24.8276 66.2249 23.6898 65.6449 22.7022C65.0558 21.6989 64.1518 20.8973 63.0157 20.2705C60.6976 18.9915 57.6559 18.5778 55.4191 18.6145L53.269 18.6498L53.6406 16.5318C53.9611 14.7047 53.625 11.5496 51.8332 8.82058C50.1077 6.19256 46.9514 3.83457 41.3363 3.5754C35.6934 3.31496 32.011 5.27607 29.5907 7.69813C27.1167 10.1739 25.8766 13.2246 25.3766 15.1531L26.9964 19.3592L22.378 15.9393C22.1575 15.7104 21.3674 15.2128 20.0361 14.7171C18.7833 14.2507 17.3002 13.8784 15.9186 13.7528C14.2857 13.6044 11.3104 13.9584 8.77378 15.5368C6.34975 17.045 4.22502 19.7221 4.1201 24.5485L0.568787 24.4713C0.700677 18.4043 3.48977 14.6409 6.89719 12.5208C10.192 10.4707 13.9658 10.0085 16.2402 10.2153C17.9846 10.3739 19.7774 10.8304 21.2755 11.3882C21.7518 11.5655 22.2299 11.7646 22.6854 11.9825C23.516 9.87773 24.8961 7.37075 27.0781 5.18727Z" fill="#0582CA"/>
</svg>
