<svg xmlns="http://www.w3.org/2000/svg" xmlns:xlink="http://www.w3.org/1999/xlink" width="500pt" height="800"><defs><linearGradient xlink:href="#c" id="n" x1="375.173" x2="377.485" y1="419.785" y2="324.038" gradientTransform="scale(.64978 1.53897)" gradientUnits="userSpaceOnUse"/><linearGradient id="e"><stop offset="0" style="stop-color:#3f2600;stop-opacity:.6"/><stop offset="1" style="stop-color:#3f2600;stop-opacity:0"/></linearGradient><linearGradient id="d"><stop offset="0" style="stop-color:#ffa63f;stop-opacity:1"/><stop offset="1" style="stop-color:#ff0;stop-opacity:1"/></linearGradient><linearGradient id="c"><stop offset="0" style="stop-color:#ffeed7;stop-opacity:1"/><stop offset="1" style="stop-color:#bdbfc2;stop-opacity:1"/></linearGradient><linearGradient id="a"><stop offset="0" style="stop-color:#fff;stop-opacity:.8"/><stop offset="1" style="stop-color:#fff;stop-opacity:0"/></linearGradient><linearGradient xlink:href="#d" id="y" x1="284.687" x2="285.459" y1="410.463" y2="485.699" gradientTransform="scale(1.21868 .82056)" gradientUnits="userSpaceOnUse"/><linearGradient xlink:href="#c" id="g" x1="400.578" x2="400.844" y1="369.53" y2="304.079" gradientTransform="scale(.57526 1.73834)" gradientUnits="userSpaceOnUse"/><linearGradient xlink:href="#a" id="h" x1="303.018" x2="297.086" y1="237.932" y2="330.096" gradientTransform="scale(1.11607 .896)" gradientUnits="userSpaceOnUse"/><linearGradient xlink:href="#c" id="i" x1="378.938" x2="380.273" y1="278.602" y2="243.916" gradientTransform="scale(.8165 1.22474)" gradientUnits="userSpaceOnUse"/><linearGradient xlink:href="#c" id="j" x1="381.387" x2="380.552" y1="277.495" y2="245.683" gradientTransform="scale(.8165 1.22474)" gradientUnits="userSpaceOnUse"/><linearGradient xlink:href="#b" id="k" x1="379.096" x2="376.796" y1="240.927" y2="281.016" gradientTransform="scale(.8165 1.22474)" gradientUnits="userSpaceOnUse"/><linearGradient xlink:href="#b" id="l" x1="389.635" x2="387.069" y1="242.282" y2="281.325" gradientTransform="scale(.8165 1.22474)" gradientUnits="userSpaceOnUse"/><linearGradient xlink:href="#c" id="m" x1="437.579" x2="437.579" y1="528.872" y2="394.104" gradientTransform="scale(.81285 1.23023)" gradientUnits="userSpaceOnUse" spreadMethod="reflect"/><linearGradient id="b"><stop offset="0" style="stop-color:#fff;stop-opacity:.65"/><stop offset="1" style="stop-color:#fff;stop-opacity:0"/></linearGradient><linearGradient xlink:href="#a" id="o" x1="320.751" x2="321.322" y1="498.178" y2="614.504" gradientTransform="scale(1.0748 .9304)" gradientUnits="userSpaceOnUse"/><linearGradient xlink:href="#b" id="p" x1="322.483" x2="323.251" y1="435.268" y2="488.483" gradientTransform="scale(1.077 .9285)" gradientUnits="userSpaceOnUse"/><linearGradient xlink:href="#b" id="q" x1="411.221" x2="411.221" y1="242.944" y2="331.449" gradientTransform="scale(.5717 1.74915)" gradientUnits="userSpaceOnUse"/><linearGradient xlink:href="#b" id="r" x1="867.345" x2="867.335" y1="234.739" y2="314.839" gradientTransform="scale(.57267 1.74621)" gradientUnits="userSpaceOnUse"/><linearGradient xlink:href="#d" id="s" x1="236.254" x2="212.51" y1="657.111" y2="737.412" gradientTransform="scale(1.01151 .98862)" gradientUnits="userSpaceOnUse"/><linearGradient xlink:href="#c" id="t" x1="381.566" x2="279.643" y1="655.731" y2="386.666" gradientTransform="scale(1.0655 .93853)" gradientUnits="userSpaceOnUse"/><linearGradient xlink:href="#d" id="u" x1="218.117" x2="203.127" y1="630.305" y2="737.854" gradientTransform="scale(1.00985 .99025)" gradientUnits="userSpaceOnUse"/><linearGradient xlink:href="#b" id="v" x1="117.89" x2="182.245" y1="587.236" y2="704.731" gradientTransform="scale(1.00772 .99233)" gradientUnits="userSpaceOnUse"/><linearGradient xlink:href="#b" id="w" x1="223.101" x2="230.535" y1="570.418" y2="710.977" gradientTransform="scale(.9995 1.0005)" gradientUnits="userSpaceOnUse"/><linearGradient xlink:href="#b" id="x" x1="316.94" x2="371.609" y1="474.018" y2="582.635" gradientTransform="scale(1.0655 .93853)" gradientUnits="userSpaceOnUse"/><linearGradient xlink:href="#b" id="z" x1="288.824" x2="288.376" y1="398.854" y2="482.559" gradientTransform="scale(1.22194 .81837)" gradientUnits="userSpaceOnUse"/><radialGradient xlink:href="#e" id="f" cx="446.778" cy="1219.412" r="195.072" fx="446.778" fy="1219.412" gradientTransform="scale(1.04523 .95673)" gradientUnits="userSpaceOnUse"/></defs><path d="M670.882 1166.642a203.896 186.63 0 1 1-407.791 0 203.896 186.63 0 1 1 407.791 0z" style="fill:url(#f);stroke:none;stroke-width:1pt;stroke-linecap:butt;stroke-linejoin:miter" transform="matrix(1.4177 0 0 .41474 -349.547 157.941)"/><path d="M223.627 632.24c-22.388-32.223-26.754-136.984 25.487-201.43 25.886-30.918 32.49-52.465 34.531-81.393 1.389-32.979-23.325-131.442 69.883-138.944 94.406-7.532 89.336 85.66 88.793 134.975-.451 41.64 30.574 65.241 51.796 97.695 39.279 59.63 35.957 162.3-7.399 217.872-54.917 69.568-101.953 39.398-133.19 41.93-58.493 3.202-60.427 34.391-129.901-70.705z" style="fill:#000;stroke:none;stroke-width:1.25" transform="matrix(1.25 0 0 1.25 -125.298 -231.758)"/><path d="M246.571 470.864c-12.239 12.496-44.396 69.092 4.869 105.36 17.369 12.633-16.377 59.495-32.005 36.308-27.57-41.618-8.831-106.941 8.315-130.188 11.652-16.487 29.23-22.676 18.821-11.48z" style="fill:url(#g);stroke:none;stroke-width:.99464899" transform="matrix(-1.67739 -.02245 -.02112 1.4709 862.828 -357.27)"/><path d="M256.513 459.837c-19.915 17.717-56.176 80.091-3.288 120.606 17.37 12.632-15.393 52.463-33.79 32.089-63.963-70.82 1.669-152.254 24.262-180.25 20.192-24.347 38.078 5.752 12.816 27.555z" style="fill:#000;stroke:#000;stroke-width:.97729802" transform="matrix(-1.67755 0 0 1.52374 863.868 -382.335)"/><path d="M399.569 258.158a58.373 46.863 0 1 1-116.747 0 58.373 46.863 0 1 1 116.747 0z" style="fill:url(#h);stroke:none;stroke-width:1.26498997" transform="matrix(1.26626 -.07137 -.04598 1.19574 -108.61 -190.014)"/><path d="M328.863 320.642a18.087 27.131 0 1 1-36.175 0 18.087 27.131 0 1 1 36.175 0z" style="fill:url(#i);stroke:none;stroke-width:1.17873001" transform="matrix(1.30445 -.07553 .07713 1.34257 -165.995 -241.87)"/><path d="M328.863 320.642a18.087 27.131 0 1 1-36.175 0 18.087 27.131 0 1 1 36.175 0z" style="fill:url(#j);stroke:none;stroke-width:.93138498" transform="matrix(-1.81082 .04951 .03173 1.55333 896.708 -349.03)"/><path d="M328.863 320.642a18.087 27.131 0 1 1-36.175 0 18.087 27.131 0 1 1 36.175 0z" style="fill:#000;stroke:none;stroke-width:1.86495996" transform="matrix(-.8232 -.00176 -.01823 .85266 602.922 -102.243)"/><path d="M328.863 320.642a18.087 27.131 0 1 1-36.175 0 18.087 27.131 0 1 1 36.175 0z" style="fill:#000;stroke:none;stroke-width:2.39814997" transform="matrix(.59438 -.0723 .06882 .70584 56.696 -31.834)"/><path d="M328.863 320.642a18.087 27.131 0 1 1-36.175 0 18.087 27.131 0 1 1 36.175 0z" style="fill:url(#k);stroke:none;stroke-width:3.1916101" transform="matrix(-.48032 -.03645 -.0468 .4756 502.744 22.76)"/><path d="M328.863 320.642a18.087 27.131 0 1 1-36.175 0 18.087 27.131 0 1 1 36.175 0z" style="fill:url(#l);stroke:none;stroke-width:4.12025976" transform="matrix(.35691 -.04082 .04132 .39854 138.582 50.738)"/><path d="M258.702 495.425c12.836-29.103 40.114-80.226 40.695-119.758 0-31.442 94.179-38.951 101.737-7.558 7.558 31.393 26.741 78.483 38.95 101.156 12.208 22.672 47.809 94.695 9.884 157.546-34.157 55.644-137.725 99.666-193.01-7.557-18.603-37.207-15.285-83.315 1.744-123.829z" style="fill:url(#m);stroke:none;stroke-width:1.25" transform="matrix(1.25 0 0 1.25 -125.298 -232.483)"/><path d="M242.905 473.815c-11.263 18.967-35.5 69.309 12.137 102.047 51.311 34.82 46.473 97.062-15.607 61.955-56.777-31.789-22.845-137.778-4.51-162.266 12.107-17.214 29.897-38.031 7.98-1.736z" style="fill:url(#n);stroke:none;stroke-width:1.15804005" transform="matrix(1.38936 -.11107 .10221 1.30214 -202.34 -230.19)"/><path d="M256.513 449.72c-17.465 28.508-59.377 95.813-3.288 130.723 75.569 46.355 54.173 92.711-14.799 50.974-97.109-58.264-11.825-175.616 27.131-220.338 44.444-50.2 8.554 9.087-9.044 38.641z" style="fill:#000;stroke:#000;stroke-width:1.25" transform="matrix(1.25 0 0 1.25 -125.298 -231.758)"/><path d="M421.481 504.727c0 32.412-29.272 74.516-79.528 74.138-51.828.455-73.949-41.726-73.949-74.138 0-32.412 34.379-58.717 76.739-58.717 42.359 0 76.738 26.305 76.738 58.717z" style="font-size:12px;fill:url(#o);stroke:none;stroke-width:1.23705006;stroke-dasharray:none" transform="matrix(1.30209 0 0 1.22525 -140.71 -217.81)"/><path d="M398.227 412.292c-.612 38.572-23.18 47.671-51.74 47.671-28.561 0-49.292-5.694-51.741-47.671 0-26.314 23.18-41.542 51.741-41.542 28.56 0 51.74 15.228 51.74 41.542z" style="font-size:12px;fill:url(#p);stroke:none;stroke-width:1.38846004;stroke-dasharray:none" transform="matrix(1.1868 0 0 1.06708 -100.13 -164.33)"/><path d="M234.285 456.475c17.716-26.996 55.015-68.364 6.977 5.813-38.951 61.043-14.403 100.273-1.744 111.039 36.527 32.562 34.966 54.349 6.395 37.206-61.625-36.626-48.835-98.248-11.628-154.058z" style="fill:url(#q);stroke:none;stroke-width:1.25" transform="matrix(1.25 0 0 1.25 -125.298 -231.758)"/><path d="M490.662 467.52c-15.319-31.701-64.134-111.902 2.326-18.603 60.461 84.297 18.022 143.013 10.464 148.827-7.557 5.813-33.137 17.44-25.579-2.907 7.557-20.347 45.234-58.973 12.789-127.317z" style="fill:url(#r);stroke:none;stroke-width:1.25" transform="matrix(1.25 0 0 1.25 -125.298 -231.758)"/><path d="M220.915 716.921c-40.442-21.416-99.252 4.124-77.902-54.066 4.276-13.238-6.375-33.008.581-45.926 8.139-15.698 25.58-12.209 36.045-22.674 10.318-10.891 16.859-29.649 36.044-26.742 19.184 2.907 31.945 26.461 45.344 55.229 9.883 20.638 44.941 49.664 42.65 72.758-2.696 35.5-43.027 42.19-82.762 21.421z" style="fill:url(#s);stroke:#e68c3f;stroke-width:6.25" transform="matrix(1.25 0 0 1.25 -125.298 -231.758)"/><path d="M415.072 495.764c-3.007 24.906-35.813 76.627-69.518 81.534-34.26 5.336-66.432-34.06-74.147-71.114-9.889-41.206 22.587-57.6 71.938-56.627 53.301 1.654 74.121 13.891 71.727 46.207z" style="font-size:12px;fill:url(#t);stroke:none;stroke-width:2.85509992;stroke-dasharray:none" transform="matrix(.5982 .26858 -.23962 .61721 389.816 76.211)"/><path d="M220.274 718.402c-41.327-23.59-99.894 5.605-77.261-55.547 4.736-13.068-6.596-33.552.36-46.47 8.139-15.698 25.801-11.665 36.266-22.13 10.318-10.891 18.827-27.868 38.012-24.961 19.184 2.907 29.977 24.68 43.376 53.448 9.883 20.638 43.415 48.971 41.124 72.065-2.696 35.5-42.724 45.471-81.877 23.595z" style="fill:url(#u);stroke:#e68c3f;stroke-width:6.25067997" transform="matrix(-1.1685 .42314 .47528 1.16478 417.59 -278.074)"/><path d="M216.482 675.68c-86.531-57.503-47.308-70.96-36.843-81.425 10.318-10.891 18.827-27.868 38.012-24.961 19.184 2.907 29.977 24.68 43.376 53.448 9.883 20.638 43.06 48.918 41.124 72.065-2.616 27.11-48.19 5.487-85.669-19.127z" style="fill:url(#v);stroke:none;stroke-width:1.52532005" transform="matrix(-.9451 .34375 .42408 .95606 403.576 -128.595)"/><path d="M216.506 677.071c-86.531-57.503-46.797-73.57-33.946-81.28 15.399-9.942 15.158-30.831 34.343-27.924 19.184 2.907 30.725 26.107 44.124 54.875 9.883 20.638 43.06 48.918 41.124 72.065-2.616 27.11-48.166 6.878-85.645-17.736z" style="fill:url(#w);stroke:none;stroke-width:1.52532005" transform="matrix(1.00431 -.05229 -.0174 1.04575 -66.561 -92.718)"/><path d="M415.072 495.764c-3.007 24.906-35.813 76.627-69.518 81.534-34.26 5.336-66.432-34.06-74.147-71.114-9.889-41.206 22.587-57.6 71.938-56.627 53.301 1.654 74.121 13.891 71.727 46.207z" style="font-size:12px;fill:#000;stroke:none;stroke-width:2.85509992" transform="matrix(.51558 .21526 -.20653 .49467 402.548 158.306)"/><path d="M415.072 495.764c-3.007 24.906-35.813 76.627-69.518 81.534-34.26 5.336-66.432-34.06-74.147-71.114-9.889-41.206 22.587-57.6 71.938-56.627 53.301 1.654 74.121 13.891 71.727 46.207z" style="font-size:12px;fill:url(#x);stroke:none;stroke-width:2.85509992" transform="matrix(.35123 .14946 -.12886 .34347 413.77 254.038)"/><path d="M309.954 338.729c7.147-6.77 24.811-27.066 57.961-5.755 6.162 4.01 11.162 4.377 23.021 9.455 23.726 9.749 12.382 33.259-12.744 41.108-10.758 3.489-20.536 16.556-40.129 15.439-16.734-.977-21.119-11.874-31.398-17.906-18.269-10.311-20.965-24.254-11.1-31.653 9.866-7.399 13.725-10.059 14.389-10.688z" style="fill:url(#y);stroke:#e68c3f;stroke-width:3.75" transform="matrix(1.25 0 0 1.25 -125.298 -231.758)"/><path d="M391.251 357.645c-9.883.581-31.393 22.091-54.066 22.091-22.673 0-36.044-20.929-39.532-20.929" style="fill:none;stroke:#e68c3f;stroke-width:2.5" transform="matrix(1.25 0 0 1.25 -125.298 -231.758)"/><path d="M309.954 338.729c7.147-6.77 29.691-25.348 59.588-6.328 6.299 3.766 12.804 7.865 22.478 13.464 19.162 11.748 9.671 28.678-13.286 39.39-10.418 4.495-27.593 14.415-40.671 13.721-14.533-1.408-23.935-11.399-33.567-17.906-17.67-12.303-16.597-22.237-8.389-30.508 6.205-5.679 13.183-11.204 13.847-11.833z" style="fill:url(#z);stroke:none" transform="matrix(.62789 0 0 .59567 81.614 -12.435)"/></svg>